# xmcd
#
# Track frame offsets:
#	150
#	9438
#	25816
#	71167
#	96677
#	122626
#	141904
#	171879
#	201000
#	248508
#	260186
#	268522
#	271339
#
# Disc length: 3950 seconds
#
# Revision: 1
# Processed by: cddbd v1.5.2PL0 Copyright (c) Steve Scherf et al.
# Submitted via: audiograbber 1.83.01
#
DISCID=c00f6c0d
DTITLE=Grateful Dead - 70-01-30 The Warehouse, New Orleans LA
DYEAR=1900
DGENRE=
TTITLE0=Casey Jones
TTITLE1=Me and My Uncle
TTITLE2=Black Peter
TTITLE3=Hard To Handle
TTITLE4=China Cat Sunflower
TTITLE5=I Know You Rider
TTITLE6=High Time
TTITLE7=Cumberland Blues
TTITLE8=Easy Wind
TTITLE9=Mama Tried
TTITLE10=Good Lovin'
TTITLE11=Drums
TTITLE12=Good Lovin'
EXTD=
EXTT0=
EXTT1=
EXTT2=
EXTT3=
EXTT4=
EXTT5=
EXTT6=
EXTT7=
EXTT8=
EXTT9=
EXTT10=
EXTT11=
EXTT12=
PLAYORDER=
